<mxfile host="app.diagrams.net" modified="2023-10-04T17:29:42.098Z" agent="Mozilla/5.0 (X11; Linux x86_64; rv:109.0) Gecko/20100101 Firefox/114.0" etag="4DkG8zjRsOF0aCMyTYdE" version="22.0.2" type="github">
  <diagram name="Página-1" id="1uxYHlNO3vs0E6pxPR1P">
    <mxGraphModel dx="1434" dy="1964" grid="1" gridSize="10" guides="1" tooltips="1" connect="1" arrows="1" fold="1" page="1" pageScale="1" pageWidth="827" pageHeight="1169" math="0" shadow="0">
      <root>
        <mxCell id="0" />
        <mxCell id="1" parent="0" />
        <mxCell id="qxSfw1GEUmiAaHcLJ-l_-4" style="edgeStyle=orthogonalEdgeStyle;rounded=0;orthogonalLoop=1;jettySize=auto;html=1;exitX=1;exitY=0.5;exitDx=0;exitDy=0;endArrow=none;endFill=0;" edge="1" parent="1" source="qxSfw1GEUmiAaHcLJ-l_-1" target="qxSfw1GEUmiAaHcLJ-l_-5">
          <mxGeometry relative="1" as="geometry">
            <mxPoint x="354" y="190" as="targetPoint" />
          </mxGeometry>
        </mxCell>
        <mxCell id="qxSfw1GEUmiAaHcLJ-l_-1" value="Biblioteca" style="rounded=0;whiteSpace=wrap;html=1;fillColor=#d5e8d4;strokeColor=#82b366;" vertex="1" parent="1">
          <mxGeometry x="100" y="160" width="120" height="60" as="geometry" />
        </mxCell>
        <mxCell id="qxSfw1GEUmiAaHcLJ-l_-6" style="edgeStyle=orthogonalEdgeStyle;rounded=0;orthogonalLoop=1;jettySize=auto;html=1;exitX=1;exitY=0.5;exitDx=0;exitDy=0;endArrow=none;endFill=0;" edge="1" parent="1" source="qxSfw1GEUmiAaHcLJ-l_-5">
          <mxGeometry relative="1" as="geometry">
            <mxPoint x="574" y="190" as="targetPoint" />
          </mxGeometry>
        </mxCell>
        <mxCell id="qxSfw1GEUmiAaHcLJ-l_-53" style="edgeStyle=orthogonalEdgeStyle;rounded=0;orthogonalLoop=1;jettySize=auto;html=1;exitX=0;exitY=1;exitDx=0;exitDy=0;" edge="1" parent="1" source="qxSfw1GEUmiAaHcLJ-l_-5">
          <mxGeometry relative="1" as="geometry">
            <mxPoint x="300" y="230" as="targetPoint" />
          </mxGeometry>
        </mxCell>
        <mxCell id="qxSfw1GEUmiAaHcLJ-l_-56" style="edgeStyle=orthogonalEdgeStyle;rounded=0;orthogonalLoop=1;jettySize=auto;html=1;exitX=1;exitY=1;exitDx=0;exitDy=0;" edge="1" parent="1" source="qxSfw1GEUmiAaHcLJ-l_-5">
          <mxGeometry relative="1" as="geometry">
            <mxPoint x="400" y="230" as="targetPoint" />
          </mxGeometry>
        </mxCell>
        <mxCell id="qxSfw1GEUmiAaHcLJ-l_-59" style="edgeStyle=orthogonalEdgeStyle;rounded=0;orthogonalLoop=1;jettySize=auto;html=1;exitX=0.5;exitY=0;exitDx=0;exitDy=0;" edge="1" parent="1" source="qxSfw1GEUmiAaHcLJ-l_-5">
          <mxGeometry relative="1" as="geometry">
            <mxPoint x="354" y="120" as="targetPoint" />
          </mxGeometry>
        </mxCell>
        <mxCell id="qxSfw1GEUmiAaHcLJ-l_-5" value="presta" style="rhombus;whiteSpace=wrap;html=1;fillColor=#a20025;fontColor=#ffffff;strokeColor=#6F0000;" vertex="1" parent="1">
          <mxGeometry x="314" y="150" width="80" height="80" as="geometry" />
        </mxCell>
        <mxCell id="qxSfw1GEUmiAaHcLJ-l_-15" style="edgeStyle=orthogonalEdgeStyle;rounded=0;orthogonalLoop=1;jettySize=auto;html=1;exitX=0;exitY=1;exitDx=0;exitDy=0;" edge="1" parent="1" source="qxSfw1GEUmiAaHcLJ-l_-7">
          <mxGeometry relative="1" as="geometry">
            <mxPoint x="570" y="280" as="targetPoint" />
          </mxGeometry>
        </mxCell>
        <mxCell id="qxSfw1GEUmiAaHcLJ-l_-17" style="edgeStyle=orthogonalEdgeStyle;rounded=0;orthogonalLoop=1;jettySize=auto;html=1;exitX=1;exitY=1;exitDx=0;exitDy=0;" edge="1" parent="1" source="qxSfw1GEUmiAaHcLJ-l_-7">
          <mxGeometry relative="1" as="geometry">
            <mxPoint x="690" y="270" as="targetPoint" />
          </mxGeometry>
        </mxCell>
        <mxCell id="qxSfw1GEUmiAaHcLJ-l_-18" style="edgeStyle=orthogonalEdgeStyle;rounded=0;orthogonalLoop=1;jettySize=auto;html=1;exitX=1;exitY=0;exitDx=0;exitDy=0;entryX=0;entryY=0.5;entryDx=0;entryDy=0;endArrow=none;endFill=0;" edge="1" parent="1" source="qxSfw1GEUmiAaHcLJ-l_-7" target="qxSfw1GEUmiAaHcLJ-l_-14">
          <mxGeometry relative="1" as="geometry" />
        </mxCell>
        <mxCell id="qxSfw1GEUmiAaHcLJ-l_-21" style="edgeStyle=orthogonalEdgeStyle;rounded=0;orthogonalLoop=1;jettySize=auto;html=1;exitX=1;exitY=1;exitDx=0;exitDy=0;" edge="1" parent="1" source="qxSfw1GEUmiAaHcLJ-l_-7">
          <mxGeometry relative="1" as="geometry">
            <mxPoint x="720" y="220" as="targetPoint" />
          </mxGeometry>
        </mxCell>
        <mxCell id="qxSfw1GEUmiAaHcLJ-l_-23" style="edgeStyle=orthogonalEdgeStyle;rounded=0;orthogonalLoop=1;jettySize=auto;html=1;exitX=0;exitY=0;exitDx=0;exitDy=0;" edge="1" parent="1" source="qxSfw1GEUmiAaHcLJ-l_-7">
          <mxGeometry relative="1" as="geometry">
            <mxPoint x="570" y="130" as="targetPoint" />
          </mxGeometry>
        </mxCell>
        <mxCell id="qxSfw1GEUmiAaHcLJ-l_-24" style="edgeStyle=orthogonalEdgeStyle;rounded=0;orthogonalLoop=1;jettySize=auto;html=1;exitX=1;exitY=0;exitDx=0;exitDy=0;" edge="1" parent="1" source="qxSfw1GEUmiAaHcLJ-l_-7">
          <mxGeometry relative="1" as="geometry">
            <mxPoint x="690" y="120" as="targetPoint" />
          </mxGeometry>
        </mxCell>
        <mxCell id="qxSfw1GEUmiAaHcLJ-l_-25" style="edgeStyle=orthogonalEdgeStyle;rounded=0;orthogonalLoop=1;jettySize=auto;html=1;exitX=0;exitY=1;exitDx=0;exitDy=0;" edge="1" parent="1" source="qxSfw1GEUmiAaHcLJ-l_-7">
          <mxGeometry relative="1" as="geometry">
            <mxPoint x="540" y="220" as="targetPoint" />
          </mxGeometry>
        </mxCell>
        <mxCell id="qxSfw1GEUmiAaHcLJ-l_-27" style="edgeStyle=orthogonalEdgeStyle;rounded=0;orthogonalLoop=1;jettySize=auto;html=1;exitX=0.5;exitY=1;exitDx=0;exitDy=0;endArrow=none;endFill=0;" edge="1" parent="1" source="qxSfw1GEUmiAaHcLJ-l_-7" target="qxSfw1GEUmiAaHcLJ-l_-28">
          <mxGeometry relative="1" as="geometry">
            <mxPoint x="630" y="420" as="targetPoint" />
          </mxGeometry>
        </mxCell>
        <mxCell id="qxSfw1GEUmiAaHcLJ-l_-63" style="edgeStyle=orthogonalEdgeStyle;rounded=0;orthogonalLoop=1;jettySize=auto;html=1;exitX=0.5;exitY=0;exitDx=0;exitDy=0;entryX=0.5;entryY=1;entryDx=0;entryDy=0;endArrow=none;endFill=0;" edge="1" parent="1" source="qxSfw1GEUmiAaHcLJ-l_-7" target="qxSfw1GEUmiAaHcLJ-l_-62">
          <mxGeometry relative="1" as="geometry" />
        </mxCell>
        <mxCell id="qxSfw1GEUmiAaHcLJ-l_-7" value="Libros" style="rounded=0;whiteSpace=wrap;html=1;fillColor=#d5e8d4;strokeColor=#82b366;" vertex="1" parent="1">
          <mxGeometry x="570" y="160" width="120" height="60" as="geometry" />
        </mxCell>
        <mxCell id="qxSfw1GEUmiAaHcLJ-l_-8" value="editorial" style="ellipse;whiteSpace=wrap;html=1;fillColor=#dae8fc;strokeColor=#6c8ebf;" vertex="1" parent="1">
          <mxGeometry x="530" y="100" width="80" height="40" as="geometry" />
        </mxCell>
        <mxCell id="qxSfw1GEUmiAaHcLJ-l_-9" value="año escritura" style="ellipse;whiteSpace=wrap;html=1;fillColor=#dae8fc;strokeColor=#6c8ebf;" vertex="1" parent="1">
          <mxGeometry x="650" y="260" width="80" height="50" as="geometry" />
        </mxCell>
        <mxCell id="qxSfw1GEUmiAaHcLJ-l_-10" value="título" style="ellipse;whiteSpace=wrap;html=1;fillColor=#dae8fc;strokeColor=#6c8ebf;" vertex="1" parent="1">
          <mxGeometry x="530" y="260" width="70" height="40" as="geometry" />
        </mxCell>
        <mxCell id="qxSfw1GEUmiAaHcLJ-l_-12" value="año edición" style="ellipse;whiteSpace=wrap;html=1;fillColor=#dae8fc;strokeColor=#6c8ebf;" vertex="1" parent="1">
          <mxGeometry x="710" y="200" width="70" height="40" as="geometry" />
        </mxCell>
        <mxCell id="qxSfw1GEUmiAaHcLJ-l_-13" value="&lt;u&gt;ISBN&lt;/u&gt;" style="ellipse;whiteSpace=wrap;html=1;fillColor=#fff2cc;strokeColor=#d6b656;" vertex="1" parent="1">
          <mxGeometry x="650" y="100" width="80" height="40" as="geometry" />
        </mxCell>
        <mxCell id="qxSfw1GEUmiAaHcLJ-l_-14" value="nombre autor (autores)" style="ellipse;whiteSpace=wrap;html=1;fillColor=#dae8fc;strokeColor=#6c8ebf;" vertex="1" parent="1">
          <mxGeometry x="710" y="140" width="80" height="40" as="geometry" />
        </mxCell>
        <mxCell id="qxSfw1GEUmiAaHcLJ-l_-26" value="editorial" style="ellipse;whiteSpace=wrap;html=1;fillColor=#dae8fc;strokeColor=#6c8ebf;" vertex="1" parent="1">
          <mxGeometry x="490" y="200" width="70" height="40" as="geometry" />
        </mxCell>
        <mxCell id="qxSfw1GEUmiAaHcLJ-l_-32" style="edgeStyle=orthogonalEdgeStyle;rounded=0;orthogonalLoop=1;jettySize=auto;html=1;exitX=0.5;exitY=1;exitDx=0;exitDy=0;entryX=0.5;entryY=0;entryDx=0;entryDy=0;endArrow=none;endFill=0;" edge="1" parent="1" source="qxSfw1GEUmiAaHcLJ-l_-28">
          <mxGeometry relative="1" as="geometry">
            <mxPoint x="630" y="570" as="targetPoint" />
          </mxGeometry>
        </mxCell>
        <mxCell id="qxSfw1GEUmiAaHcLJ-l_-28" value="cogen" style="rhombus;whiteSpace=wrap;html=1;fillColor=#a20025;fontColor=#ffffff;strokeColor=#6F0000;" vertex="1" parent="1">
          <mxGeometry x="590" y="350" width="80" height="80" as="geometry" />
        </mxCell>
        <mxCell id="qxSfw1GEUmiAaHcLJ-l_-33" style="edgeStyle=orthogonalEdgeStyle;rounded=0;orthogonalLoop=1;jettySize=auto;html=1;exitX=0;exitY=1;exitDx=0;exitDy=0;" edge="1" source="qxSfw1GEUmiAaHcLJ-l_-41" parent="1">
          <mxGeometry relative="1" as="geometry">
            <mxPoint x="570" y="650" as="targetPoint" />
          </mxGeometry>
        </mxCell>
        <mxCell id="qxSfw1GEUmiAaHcLJ-l_-34" style="edgeStyle=orthogonalEdgeStyle;rounded=0;orthogonalLoop=1;jettySize=auto;html=1;exitX=1;exitY=1;exitDx=0;exitDy=0;" edge="1" source="qxSfw1GEUmiAaHcLJ-l_-41" parent="1">
          <mxGeometry relative="1" as="geometry">
            <mxPoint x="690" y="640" as="targetPoint" />
          </mxGeometry>
        </mxCell>
        <mxCell id="qxSfw1GEUmiAaHcLJ-l_-37" style="edgeStyle=orthogonalEdgeStyle;rounded=0;orthogonalLoop=1;jettySize=auto;html=1;exitX=0;exitY=0;exitDx=0;exitDy=0;" edge="1" source="qxSfw1GEUmiAaHcLJ-l_-41" parent="1">
          <mxGeometry relative="1" as="geometry">
            <mxPoint x="570" y="500" as="targetPoint" />
          </mxGeometry>
        </mxCell>
        <mxCell id="qxSfw1GEUmiAaHcLJ-l_-38" style="edgeStyle=orthogonalEdgeStyle;rounded=0;orthogonalLoop=1;jettySize=auto;html=1;exitX=1;exitY=0;exitDx=0;exitDy=0;" edge="1" source="qxSfw1GEUmiAaHcLJ-l_-41" parent="1">
          <mxGeometry relative="1" as="geometry">
            <mxPoint x="690" y="490" as="targetPoint" />
          </mxGeometry>
        </mxCell>
        <mxCell id="qxSfw1GEUmiAaHcLJ-l_-49" style="edgeStyle=orthogonalEdgeStyle;rounded=0;orthogonalLoop=1;jettySize=auto;html=1;exitX=0;exitY=0.5;exitDx=0;exitDy=0;" edge="1" parent="1" source="qxSfw1GEUmiAaHcLJ-l_-41">
          <mxGeometry relative="1" as="geometry">
            <mxPoint x="530" y="560" as="targetPoint" />
          </mxGeometry>
        </mxCell>
        <mxCell id="qxSfw1GEUmiAaHcLJ-l_-50" style="edgeStyle=orthogonalEdgeStyle;rounded=0;orthogonalLoop=1;jettySize=auto;html=1;exitX=1;exitY=0.5;exitDx=0;exitDy=0;" edge="1" parent="1" source="qxSfw1GEUmiAaHcLJ-l_-41">
          <mxGeometry relative="1" as="geometry">
            <mxPoint x="730" y="560" as="targetPoint" />
          </mxGeometry>
        </mxCell>
        <mxCell id="qxSfw1GEUmiAaHcLJ-l_-41" value="Personas" style="rounded=0;whiteSpace=wrap;html=1;fillColor=#d5e8d4;strokeColor=#82b366;" vertex="1" parent="1">
          <mxGeometry x="570" y="530" width="120" height="60" as="geometry" />
        </mxCell>
        <mxCell id="qxSfw1GEUmiAaHcLJ-l_-42" value="&lt;u&gt;código socio&lt;/u&gt;" style="ellipse;whiteSpace=wrap;html=1;fillColor=#fff2cc;strokeColor=#d6b656;" vertex="1" parent="1">
          <mxGeometry x="530" y="470" width="80" height="40" as="geometry" />
        </mxCell>
        <mxCell id="qxSfw1GEUmiAaHcLJ-l_-43" value="teléfono" style="ellipse;whiteSpace=wrap;html=1;fillColor=#dae8fc;strokeColor=#6c8ebf;" vertex="1" parent="1">
          <mxGeometry x="650" y="630" width="80" height="50" as="geometry" />
        </mxCell>
        <mxCell id="qxSfw1GEUmiAaHcLJ-l_-44" value="dirección" style="ellipse;whiteSpace=wrap;html=1;fillColor=#dae8fc;strokeColor=#6c8ebf;" vertex="1" parent="1">
          <mxGeometry x="535" y="635" width="70" height="40" as="geometry" />
        </mxCell>
        <mxCell id="qxSfw1GEUmiAaHcLJ-l_-46" value="&lt;u&gt;dni&lt;/u&gt;" style="ellipse;whiteSpace=wrap;html=1;fillColor=#fff2cc;strokeColor=#d6b656;" vertex="1" parent="1">
          <mxGeometry x="650" y="470" width="80" height="40" as="geometry" />
        </mxCell>
        <mxCell id="qxSfw1GEUmiAaHcLJ-l_-51" value="nombre" style="ellipse;whiteSpace=wrap;html=1;fillColor=#dae8fc;strokeColor=#6c8ebf;" vertex="1" parent="1">
          <mxGeometry x="470" y="540" width="80" height="40" as="geometry" />
        </mxCell>
        <mxCell id="qxSfw1GEUmiAaHcLJ-l_-52" value="apellidos" style="ellipse;whiteSpace=wrap;html=1;fillColor=#dae8fc;strokeColor=#6c8ebf;" vertex="1" parent="1">
          <mxGeometry x="720" y="540" width="80" height="40" as="geometry" />
        </mxCell>
        <mxCell id="qxSfw1GEUmiAaHcLJ-l_-57" value="fecha tope" style="ellipse;whiteSpace=wrap;html=1;fillColor=#dae8fc;strokeColor=#6c8ebf;" vertex="1" parent="1">
          <mxGeometry x="370" y="220" width="80" height="50" as="geometry" />
        </mxCell>
        <mxCell id="qxSfw1GEUmiAaHcLJ-l_-58" value="fecha en que se realiza" style="ellipse;whiteSpace=wrap;html=1;fillColor=#dae8fc;strokeColor=#6c8ebf;" vertex="1" parent="1">
          <mxGeometry x="270" y="220" width="80" height="50" as="geometry" />
        </mxCell>
        <mxCell id="qxSfw1GEUmiAaHcLJ-l_-60" value="fecha real devuelto" style="ellipse;whiteSpace=wrap;html=1;fillColor=#dae8fc;strokeColor=#6c8ebf;" vertex="1" parent="1">
          <mxGeometry x="314" y="90" width="80" height="50" as="geometry" />
        </mxCell>
        <mxCell id="qxSfw1GEUmiAaHcLJ-l_-66" style="edgeStyle=orthogonalEdgeStyle;rounded=0;orthogonalLoop=1;jettySize=auto;html=1;exitX=0.5;exitY=0;exitDx=0;exitDy=0;endArrow=none;endFill=0;" edge="1" parent="1" source="qxSfw1GEUmiAaHcLJ-l_-62" target="qxSfw1GEUmiAaHcLJ-l_-67">
          <mxGeometry relative="1" as="geometry">
            <mxPoint x="630" y="-220" as="targetPoint" />
          </mxGeometry>
        </mxCell>
        <mxCell id="qxSfw1GEUmiAaHcLJ-l_-62" value="Volumen" style="rounded=0;whiteSpace=wrap;html=1;fillColor=#d5e8d4;strokeColor=#82b366;" vertex="1" parent="1">
          <mxGeometry x="570" y="-160" width="120" height="60" as="geometry" />
        </mxCell>
        <mxCell id="qxSfw1GEUmiAaHcLJ-l_-64" value="tiene" style="rhombus;whiteSpace=wrap;html=1;fillColor=#a20025;fontColor=#ffffff;strokeColor=#6F0000;" vertex="1" parent="1">
          <mxGeometry x="590" y="-50" width="80" height="80" as="geometry" />
        </mxCell>
        <mxCell id="qxSfw1GEUmiAaHcLJ-l_-67" value="deterioro" style="ellipse;whiteSpace=wrap;html=1;fillColor=#dae8fc;strokeColor=#6c8ebf;" vertex="1" parent="1">
          <mxGeometry x="582.5" y="-230" width="95" height="50" as="geometry" />
        </mxCell>
      </root>
    </mxGraphModel>
  </diagram>
</mxfile>
